# xmcd CD database file generated by Grip 2.96
# 
# Track frame offsets:
#       150
#       13359
#       24757
#       35584
#       49246
#       63691
#       74823
#       87688
#       102952
#       115732
#       127927
# 
# Disc length: 1856 seconds
# 
# Revision: 0
# Processed by: cddbd v1.4PL0 Copyright (c) Steve Scherf et al.
# Submitted via: Grip 2.96
# 
DISCID=9e073e0b
DTITLE=The Bluegrass Offenders - First Offense
DYEAR=1900
DGENRE=
TTITLE0=Roll In My Sweet Baby's Arms
TTITLE1=Little Maggie
TTITLE2=12-Step Program
TTITLE3=Midnight Train
TTITLE4=Livin' Like A Sailor
TTITLE5=Dear Old Dixie
TTITLE6=Will You Be Lovin' Another Man
TTITLE7=Get Me My Whiskey
TTITLE8=Sittin' On Top Of The World
TTITLE9=Ode To Bill Monroe
TTITLE10=Truck Drivin' Man
EXTD=
EXTT0=
EXTT1=
EXTT2=
EXTT3=
EXTT4=
EXTT5=
EXTT6=
EXTT7=
EXTT8=
EXTT9=
EXTT10=
PLAYORDER=
